<?xml version="1.0" encoding="UTF-8" standalone="no"?>
<svg width="34px" height="34px" viewBox="0 0 34 34" version="1.1" xmlns="http://www.w3.org/2000/svg" xmlns:xlink="http://www.w3.org/1999/xlink" xmlns:sketch="http://www.bohemiancoding.com/sketch/ns">
    <title>Linkedin</title>
    <description>Created with Sketch (http://www.bohemiancoding.com/sketch)</description>
    <defs></defs>
    <g id="Page-1" stroke="none" stroke-width="1" fill="none" fill-rule="evenodd" sketch:type="MSPage">
        <g id="LinkedIn" sketch:type="MSLayerGroup">
            <path d="M17.008,34.016 C26.403,34.016 34.016,26.4 34.016,17.007 C34.016,7.615 26.403,0 17.008,0 C7.615,0 0,7.615 0,17.007 C0,26.4 7.615,34.016 17.008,34.016" id="Fill-194" fill="#247CB4" sketch:type="MSShapeGroup"></path>
            <path d="M25.008,23.617 L21.249,23.617 L21.249,18.127 C21.249,16.69 20.661,15.709 19.368,15.709 C18.379,15.709 17.829,16.371 17.573,17.009 C17.477,17.238 17.492,17.557 17.492,17.876 L17.492,23.617 L13.768,23.617 C13.768,23.617 13.816,13.892 13.768,13.008 L17.492,13.008 L17.492,14.673 C17.712,13.945 18.902,12.906 20.801,12.906 C23.157,12.906 25.008,14.432 25.008,17.718 L25.008,23.617 L25.008,23.617 L25.008,23.617 L25.008,23.617 Z M10.002,11.681 L9.978,11.681 C8.778,11.681 8,10.87 8,9.842 C8,8.794 8.801,8 10.025,8 C11.248,8 12,8.792 12.024,9.839 C12.024,10.867 11.248,11.681 10.002,11.681 L10.002,11.681 L10.002,11.681 L10.002,11.681 Z M8.429,13.008 L11.744,13.008 L11.744,23.617 L8.429,23.617 L8.429,23.617 L8.429,13.008 L8.429,13.008 Z M8.429,13.008" id="Fill-195" fill="#FFFFFF" sketch:type="MSShapeGroup"></path>
        </g>
    </g>
</svg>