<?xml version="1.0" encoding="UTF-8" standalone="no"?>
<svg width="34px" height="34px" viewBox="0 0 34 34" version="1.1" xmlns="http://www.w3.org/2000/svg" xmlns:xlink="http://www.w3.org/1999/xlink" xmlns:sketch="http://www.bohemiancoding.com/sketch/ns">
    <title>Twitter</title>
    <description>Created with Sketch (http://www.bohemiancoding.com/sketch)</description>
    <defs></defs>
    <g id="Page-1" stroke="none" stroke-width="1" fill="none" fill-rule="evenodd" sketch:type="MSPage">
        <g id="Twitter" sketch:type="MSLayerGroup">
            <path d="M17.009,34.015 C26.402,34.015 34.016,26.401 34.016,17.007 C34.016,7.615 26.402,0 17.009,0 C7.615,0 0,7.615 0,17.007 C0,26.401 7.615,34.015 17.009,34.015" id="Fill-169" fill="#68C6E1" sketch:type="MSShapeGroup"></path>
            <path d="M25.037,12.639 C24.411,12.917 23.737,13.105 23.03,13.189 C23.752,12.757 24.306,12.072 24.567,11.256 C23.891,11.656 23.144,11.947 22.346,12.103 C21.71,11.424 20.801,11 19.795,11 C17.866,11 16.301,12.565 16.301,14.495 C16.301,14.769 16.331,15.035 16.391,15.291 C13.486,15.145 10.911,13.755 9.186,11.638 C8.885,12.156 8.713,12.757 8.713,13.397 C8.713,14.609 9.33,15.679 10.268,16.306 C9.696,16.289 9.156,16.13 8.684,15.87 L8.684,15.913 C8.684,17.607 9.889,19.02 11.489,19.34 C11.196,19.422 10.887,19.463 10.568,19.463 C10.343,19.463 10.123,19.442 9.91,19.401 C10.355,20.789 11.645,21.8 13.175,21.827 C11.979,22.765 10.471,23.324 8.834,23.324 C8.552,23.324 8.273,23.308 8,23.276 C9.547,24.266 11.385,24.845 13.358,24.845 C19.788,24.845 23.303,19.52 23.303,14.901 C23.303,14.749 23.3,14.597 23.294,14.448 C23.977,13.955 24.57,13.34 25.037,12.639" id="Fill-170" fill="#FFFFFF" sketch:type="MSShapeGroup"></path>
        </g>
    </g>
</svg>