<?xml version="1.0" encoding="UTF-8" standalone="no"?>
<svg width="35px" height="35px" viewBox="0 0 35 35" version="1.1" xmlns="http://www.w3.org/2000/svg" xmlns:xlink="http://www.w3.org/1999/xlink" xmlns:sketch="http://www.bohemiancoding.com/sketch/ns">
    <title>Github</title>
    <description>Created with Sketch (http://www.bohemiancoding.com/sketch)</description>
    <defs></defs>
    <g id="Page-1" stroke="none" stroke-width="1" fill="none" fill-rule="evenodd" sketch:type="MSPage">
        <g id="Github" sketch:type="MSLayerGroup">
            <path d="M17.5,35 C7.83533333,35 0,27.1646667 0,17.5 C0,7.83475 7.83533333,0 17.5,0 C27.1646667,0 35,7.83475 35,17.5 C35,27.1646667 27.1646667,35 17.5,35 L17.5,35 L17.5,35 L17.5,35 Z M17.5,35" id="Shape" fill="#333333" sketch:type="MSShapeGroup"></path>
            <path d="M10.2334167,17.8313333 C10.2019167,17.8313333 10.57875,18.62875 10.58925,18.62875 C11.41175,20.0964167 12.99725,21.00875 15.6718333,21.2619167 C15.2903333,21.5465833 14.8318333,22.08675 14.76825,22.7109167 C14.2881667,23.016 13.32275,23.1169167 12.5725833,22.8841667 C11.5208333,22.5580833 11.1183333,20.5123333 9.54391667,20.804 C9.20325,20.8664167 9.27091667,21.0875 9.5655,21.2759167 C10.0455833,21.581 10.4970833,21.9630833 10.8453333,22.7756667 C11.1130833,23.3998333 11.6754167,24.5145833 13.4545833,24.5145833 C14.1604167,24.5145833 14.6550833,24.4311667 14.6550833,24.4311667 C14.6550833,24.4311667 14.6685,26.02425 14.6685,26.64375 C14.6685,27.3583333 13.6873333,27.5595833 13.6873333,27.9031667 C13.6873333,28.0390833 14.01225,28.0519167 14.273,28.0519167 C14.7886667,28.0519167 15.8614167,27.629 15.8614167,26.8864167 C15.8614167,26.2966667 15.8713333,24.3139167 15.8713333,23.96625 C15.8713333,23.2079167 16.2849167,22.9675833 16.2849167,22.9675833 C16.2849167,22.9675833 16.33625,27.0159167 16.1863333,27.5595833 C16.0101667,28.19775 15.69225,28.1073333 15.69225,28.392 C15.69225,28.8155 16.98375,28.4964167 17.4119167,27.566 C17.7426667,26.84325 17.598,22.8701667 17.598,22.8701667 L17.9509167,22.8631667 C17.9509167,22.8631667 17.97075,24.6814167 17.9585,25.5126667 C17.94625,26.3736667 17.8873333,27.4621667 18.4076667,27.9755 C18.7495,28.31325 19.8566667,28.9053333 19.8566667,28.364 C19.8566667,28.0495833 19.25,27.7911667 19.25,26.9400833 L19.25,23.023 C19.73475,23.023 19.6618333,24.311 19.6618333,24.311 L19.6974167,26.7044167 C19.6974167,26.7044167 19.5900833,27.5759167 20.657,27.9405 C21.03325,28.0705833 21.83825,28.1055833 21.8761667,27.888 C21.9140833,27.6704167 20.9066667,27.3466667 20.8973333,26.6723333 C20.8915,26.2599167 20.916,26.0195833 20.916,24.2299167 C20.916,22.44025 20.6715833,21.77875 19.8193333,21.2514167 C22.449,20.986 24.0770833,20.3466667 24.8698333,18.6345833 C24.9316667,18.6363333 25.1935833,17.8348333 25.1591667,17.8348333 C25.3370833,17.1885 25.4333333,16.42375 25.452,15.5184167 C25.4473333,13.0625833 24.2515,12.194 24.02225,11.78625 C24.3605833,9.92716667 23.9650833,9.08133333 23.7819167,8.79083333 C23.1040833,8.554 21.4246667,9.40041667 20.5065,9.99658333 C19.0108333,9.56666667 15.848,9.60808333 14.6620833,10.1074167 C12.474,8.568 11.3160833,8.80366667 11.3160833,8.80366667 C11.3160833,8.80366667 10.5676667,10.1214167 11.1183333,12.0499167 C10.3985,12.95175 9.86183333,13.5899167 9.86183333,15.281 C9.86183333,16.2341667 9.97616667,17.087 10.2334167,17.8313333 C10.2334167,17.8313333 9.97616667,17.087 10.2334167,17.8313333 L10.2334167,17.8313333 L10.2334167,17.8313333 Z M10.2334167,17.8313333" id="Path" fill="#FFFFFF" sketch:type="MSShapeGroup"></path>
        </g>
    </g>
</svg>